<svg width="261" height="184" viewBox="0 0 261 184" fill="none" xmlns="http://www.w3.org/2000/svg">
<g clip-path="url(#clip0_20_269)">
<path d="M199.828 181.919C196.486 178.59 194.457 173.33 194.989 168.21C195.521 163.09 198.818 158.383 203.094 157.296C207.371 156.208 212.246 159.218 213.544 164.144C214.259 154.647 215.083 144.752 219.365 136.665C223.242 129.342 229.958 124.102 237.236 123.164C244.514 122.227 252.176 125.767 256.715 132.541C261.254 139.315 262.366 149.162 259.187 156.939C256.845 162.668 252.53 166.931 248.01 170.4C233.402 181.514 215.882 186.033 198.674 183.127L199.828 181.919Z" fill="#F2F2F2"/>
<path d="M249.518 125.964C243.513 131.731 238.004 138.182 233.071 145.223C225.35 156.203 219.102 168.515 214.545 181.728C214.211 182.692 215.539 183.111 215.869 182.158C223.325 160.684 235.228 141.757 250.489 127.108C251.174 126.45 250.198 125.311 249.518 125.964Z" fill="white"/>
<path d="M84.0201 181.015C88.6097 176.442 91.3974 169.218 90.6664 162.185C89.9353 155.152 85.4071 148.687 79.5335 147.194C73.6598 145.701 66.9642 149.835 65.1802 156.6C64.1984 143.556 63.067 129.966 57.1857 118.857C51.8603 108.799 42.6367 101.602 32.6404 100.315C22.644 99.027 12.1192 103.89 5.88482 113.194C-0.349529 122.497 -1.87598 136.023 2.49039 146.704C5.70695 154.573 11.633 160.429 17.842 165.193C37.6508 180.392 62.2237 186.731 85.6052 182.673" fill="#F2F2F2"/>
<path d="M15.77 104.159C24.0182 112.081 31.5851 120.942 38.3612 130.612C45.1383 140.272 51.1048 150.685 56.177 161.703C59.0121 167.884 61.5589 174.243 63.8061 180.751C64.2643 182.075 62.4411 182.652 61.988 181.343C58.0077 169.868 53.0832 158.882 47.2853 148.54C41.5156 138.236 34.9118 128.616 27.5667 119.816C23.4123 114.841 19.029 110.139 14.4368 105.732C13.4955 104.828 14.8365 103.263 15.77 104.159L15.77 104.159Z" fill="white"/>
<path d="M187.35 183.597H77.85V51.1171C77.85 22.931 97.2967 0 121.2 0H144C167.903 0 187.35 22.931 187.35 51.1171V183.597Z" fill="#F2F2F2"/>
<path d="M164.55 183.597H77.85V51.1171C77.8261 40.3169 80.7264 29.7895 86.1287 21.0679C86.3279 20.7479 86.5265 20.4319 86.7313 20.1195C89.3444 16.0782 92.454 12.5192 95.9576 9.55976C96.1555 9.38996 96.3542 9.22311 96.5558 9.05625C99.4875 6.66398 102.659 4.70834 105.997 3.23385C106.196 3.14524 106.398 3.05645 106.599 2.9713C109.619 1.70064 112.749 0.830256 115.932 0.376199C116.129 0.344414 116.332 0.319542 116.534 0.29467C119.636 -0.0963922 122.764 -0.0963922 125.866 0.29467C126.068 0.319542 126.271 0.344411 126.47 0.376539C129.652 0.830626 132.782 1.70091 135.8 2.97131C136.002 3.05647 136.204 3.14525 136.403 3.23403C139.701 4.68992 142.835 6.61638 145.735 8.97041C145.937 9.13364 146.138 9.3005 146.337 9.46736C148.301 11.1203 150.145 12.9619 151.852 14.9731C153.221 16.5864 154.496 18.3061 155.669 20.1205C155.874 20.4319 156.072 20.7479 156.271 21.0674C161.673 29.7891 164.574 40.3166 164.55 51.1171V183.597Z" fill="#CCCCCC"/>
<path d="M157.5 124.344C160.151 124.344 162.3 121.81 162.3 118.684C162.3 115.558 160.151 113.024 157.5 113.024C154.849 113.024 152.7 115.558 152.7 118.684C152.7 121.81 154.849 124.344 157.5 124.344Z" fill="#6C63FF"/>
<path d="M178.38 179.629H174.702L172.952 162.901L178.38 162.901L178.38 179.629Z" fill="#FFB8B8"/>
<path d="M172.075 178.39H179.168V183.656H167.608C167.608 182.965 167.724 182.28 167.948 181.641C168.173 181.002 168.502 180.421 168.917 179.932C169.331 179.443 169.824 179.055 170.365 178.791C170.907 178.526 171.488 178.39 172.075 178.39Z" fill="#2F2E41"/>
<path d="M196.68 179.629H193.002L191.252 162.901L196.68 162.901L196.68 179.629Z" fill="#FFB8B8"/>
<path d="M190.375 178.39H197.468V183.656H185.908C185.908 182.965 186.024 182.28 186.248 181.641C186.473 181.002 186.802 180.421 187.217 179.932C187.631 179.443 188.124 179.055 188.665 178.791C189.207 178.526 189.788 178.39 190.375 178.39Z" fill="#2F2E41"/>
<path d="M159.929 119.805C159.665 119.345 159.489 118.823 159.414 118.274C159.339 117.726 159.367 117.165 159.496 116.63C159.625 116.096 159.852 115.601 160.161 115.182C160.469 114.762 160.852 114.427 161.282 114.201L173.785 73.5662L179.937 77.5252L165.662 116.357C165.937 117.234 165.929 118.2 165.64 119.071C165.351 119.942 164.801 120.658 164.094 121.083C163.388 121.508 162.574 121.613 161.806 121.377C161.038 121.142 160.371 120.582 159.929 119.805Z" fill="#FFB8B8"/>
<path d="M194.801 127.44C194.392 127.164 194.04 126.785 193.769 126.331C193.497 125.877 193.314 125.358 193.231 124.811C193.148 124.264 193.168 123.702 193.29 123.166C193.411 122.629 193.631 122.13 193.933 121.704L190.06 78.7196L197.061 79.0967L198.671 121.377C199.244 122.024 199.596 122.896 199.66 123.828C199.725 124.761 199.497 125.688 199.02 126.436C198.543 127.183 197.85 127.698 197.072 127.883C196.295 128.068 195.487 127.911 194.801 127.44Z" fill="#FFB8B8"/>
<path d="M183.632 66.0397C187.701 66.0397 191 62.1497 191 57.3512C191 52.5526 187.701 48.6626 183.632 48.6626C179.562 48.6626 176.263 52.5526 176.263 57.3512C176.263 62.1497 179.562 66.0397 183.632 66.0397Z" fill="#FFB8B8"/>
<path d="M194.754 117.664H172.54L172.567 117.461C172.606 117.156 176.526 86.8827 173.635 76.9787C173.345 76.0054 173.371 74.94 173.707 73.9876C174.043 73.0352 174.666 72.263 175.456 71.8198H175.456C179.587 69.5256 187.518 66.7006 194.212 73.5564C195.197 74.5819 195.966 75.8635 196.459 77.2999C196.951 78.7364 197.154 80.2882 197.05 81.8328L194.754 117.664Z" fill="#343434"/>
<path d="M176.806 91.3566L166.805 88.9641L171.493 75.8648C171.774 74.596 172.47 73.5103 173.428 72.8457C174.387 72.1811 175.529 71.9919 176.606 72.3197C177.683 72.6474 178.605 73.4653 179.171 74.5939C179.737 75.7226 179.9 77.0698 179.625 78.3402L176.806 91.3566Z" fill="#6C63FF"/>
<path d="M189.615 95.7989L189.014 79.547C188.558 76.4919 190.041 73.6039 192.322 73.1318C194.604 72.6615 196.832 74.7804 197.29 77.8579L199.549 93.0437L189.615 95.7989Z" fill="#6C63FF"/>
<path d="M194.015 115.719C197.589 131.771 197.979 152.18 197.015 174.442L192.215 173.734L183.515 131.284L178.715 174.442L173.315 174.088C171.702 150.73 170.131 130.677 172.715 117.488L194.015 115.719Z" fill="#2F2E41"/>
<path d="M188.487 64.0659C187.112 65.7925 184.559 64.8656 184.38 62.5068C184.366 62.3237 184.367 62.1394 184.383 61.9565C184.476 60.9117 184.988 59.9631 184.865 58.8599C184.837 58.5853 184.751 58.3237 184.613 58.0997C183.518 56.3701 180.946 58.8733 179.913 57.3076C179.279 56.3475 180.024 54.8359 179.537 53.7628C178.895 52.3465 176.994 53.0452 175.801 52.2695C174.474 51.4066 174.554 49.0061 175.427 47.546C176.492 45.7654 178.36 44.8152 180.204 44.6783C182.048 44.5413 183.88 45.1292 185.602 45.9205C187.558 46.8195 189.498 48.0619 190.702 50.0903C192.166 52.5571 192.307 55.8734 191.575 58.7579C191.129 60.5125 189.609 62.6559 188.487 64.0659Z" fill="#2F2E41"/>
<path d="M251.994 183.825H30.5063C30.4117 183.825 30.3211 183.78 30.2543 183.701C30.1876 183.622 30.1501 183.515 30.1501 183.404C30.1501 183.292 30.1876 183.185 30.2543 183.106C30.3211 183.027 30.4117 182.983 30.5063 182.982H251.994C252.089 182.983 252.18 183.027 252.246 183.106C252.313 183.185 252.351 183.292 252.351 183.404C252.351 183.515 252.313 183.622 252.246 183.701C252.18 183.78 252.089 183.825 251.994 183.825Z" fill="#3F3D56"/>
<path d="M140.7 145.215H101.7C101.186 145.218 100.693 144.981 100.327 144.556C99.9615 144.13 99.754 143.551 99.75 142.946V40.2977C99.754 39.6921 99.9615 39.113 100.327 38.6876C100.693 38.2621 101.186 38.0251 101.7 38.0283H140.7C141.214 38.0251 141.707 38.2621 142.073 38.6876C142.439 39.113 142.646 39.6921 142.65 40.2977V142.946C142.646 143.551 142.439 144.13 142.073 144.556C141.707 144.981 141.214 145.218 140.7 145.215Z" fill="white"/>
<path d="M142.65 71.242H99.75V71.9495H142.65V71.242Z" fill="#CCCCCC"/>
<path d="M142.8 111.609H99.9V112.316H142.8V111.609Z" fill="#CCCCCC"/>
<path d="M113.85 38.0283H113.25V145.569H113.85V38.0283Z" fill="#CCCCCC"/>
<path d="M128.85 38.0283H128.25V145.569H128.85V38.0283Z" fill="#CCCCCC"/>
</g>
<defs>
<clipPath id="clip0_20_269">
<rect width="261" height="184" fill="white"/>
</clipPath>
</defs>
</svg>
