<svg width="100%" height="100%" viewBox="0 0 197 207" fill="none" xmlns="http://www.w3.org/2000/svg">
<g clip-path="url(#clip0_20_91)">
<path d="M197 206.622C197 206.672 196.991 206.721 196.972 206.767C196.954 206.813 196.927 206.855 196.893 206.89C196.858 206.925 196.818 206.953 196.773 206.972C196.729 206.99 196.681 207 196.632 207H0.367636C0.270133 207 0.176622 206.96 0.107677 206.889C0.0387324 206.819 0 206.723 0 206.622C0 206.522 0.0387324 206.426 0.107677 206.356C0.176622 206.285 0.270133 206.245 0.367636 206.245H196.632C196.681 206.245 196.729 206.254 196.773 206.273C196.818 206.292 196.858 206.32 196.893 206.355C196.927 206.39 196.954 206.432 196.972 206.478C196.991 206.524 197 206.573 197 206.622Z" fill="#CCCCCC"/>
<path d="M159.75 9.35218C159.508 7.96725 158.908 6.67442 158.014 5.60848C156.742 4.12169 155.197 2.90676 153.468 2.03307C151.739 1.15938 149.859 0.644039 147.935 0.516476C146.012 0.388912 144.083 0.651622 142.259 1.28961C140.435 1.92759 138.751 2.92835 137.303 4.23475L137.179 4.34897C135.451 2.62878 133.345 1.36178 131.038 0.655355C128.732 -0.0510678 126.294 -0.176093 123.931 0.290879C121.567 0.75785 119.349 1.80305 117.462 3.3379C115.576 4.87275 114.078 6.852 113.095 9.1079C112.191 11.1723 111.777 13.4271 111.886 15.6876C111.995 17.9481 112.624 20.1499 113.722 22.1125C114.214 22.9974 114.793 23.8287 115.449 24.5935C116.125 25.3866 134.39 46.253 134.572 46.4623C134.594 46.4884 134.621 46.5092 134.651 46.5235C134.681 46.5377 134.715 46.545 134.748 46.5448C134.754 46.5448 134.763 46.5417 134.773 46.5417C134.786 46.5415 134.798 46.5383 134.81 46.5321C134.87 46.5171 134.922 46.4784 134.955 46.4243L135.051 46.2625L135.165 46.0626L136.855 43.1628C141.541 35.1202 147.859 27.5313 155.635 20.6087C156.136 20.1622 156.6 19.6741 157.022 19.1493C158.686 17.1065 159.69 14.5831 159.895 11.9284C159.954 11.0668 159.905 10.201 159.75 9.35218Z" fill="#6C63FF"/>
<path d="M75.9551 172.475L79.3948 160.97C75.2562 156.293 70.0682 152.723 64.2813 150.572C69.9351 160.191 64.4566 172.739 66.7396 183.727C67.4772 187.149 68.9551 190.356 71.0637 193.111C73.1724 195.866 75.8578 198.099 78.9208 199.643L84.1406 206.285C86.8771 201.375 88.5445 195.915 89.0281 190.279C89.5116 184.644 88.7998 178.968 86.9416 173.643C85.8704 170.666 84.4383 167.839 82.6793 165.229C79.5775 168.974 75.9551 172.475 75.9551 172.475Z" fill="#F2F2F2"/>
<path d="M57.0415 173.944L55.1242 162.072C49.3885 159.781 43.1949 158.962 37.0811 159.687C46.3188 165.707 46.8647 179.447 53.68 188.237C55.826 190.961 58.5416 193.155 61.6255 194.655C64.7094 196.155 68.0825 196.924 71.4948 196.903L79.0511 200.457C79.3681 194.81 78.4892 189.158 76.4747 183.893C74.4602 178.628 71.3582 173.874 67.3822 169.958C65.1306 167.784 62.6213 165.91 59.9136 164.38C58.7636 169.152 57.0415 173.944 57.0415 173.944Z" fill="#F2F2F2"/>
<path d="M94.8036 96.0911L93.8539 98.3595L95.406 106.417L111.241 104.156L111.114 94.3312L110.796 92.1792L94.8036 96.0911Z" fill="#FFB6B6"/>
<path d="M86.6226 200.511H90.116L91.7784 186.674H86.6226V200.511Z" fill="#FFB6B6"/>
<path d="M96.3693 203.932L91.065 200.168V197.711L90.4483 197.75L86.6225 197.984L85.4838 198.053L84.7796 206.727H87.2847L87.7296 204.299L88.8753 206.727H95.5214C95.8398 206.727 96.1498 206.622 96.4061 206.429C96.6624 206.235 96.8517 205.962 96.9464 205.65C97.0411 205.337 97.0361 205.002 96.9323 204.693C96.8285 204.384 96.6313 204.117 96.3693 203.932Z" fill="#2F2E41"/>
<path d="M106.246 200.511H109.739L111.794 180.139L105.23 179.736L106.246 200.511Z" fill="#FFB6B6"/>
<path d="M115.993 203.932L110.688 200.168V197.711L110.016 197.75L106.123 197.991L105.107 198.053L104.403 206.727H106.908L107.353 204.299L108.499 206.727H115.145C115.463 206.727 115.773 206.622 116.029 206.429C116.286 206.235 116.475 205.962 116.57 205.65C116.664 205.337 116.659 205.002 116.556 204.693C116.452 204.384 116.255 204.117 115.993 203.932Z" fill="#2F2E41"/>
<path d="M85.1397 188.578H85.1533L85.8252 166.078C85.3904 165.217 85.1697 164.259 85.1828 163.289C85.196 162.319 85.4424 161.367 85.9003 160.519L85.9965 160.34L85.7471 159.153C85.4268 157.627 85.5738 156.037 86.1679 154.601L86.7947 133.613C84.5555 118.71 95.227 108.991 95.227 108.991L94.2462 101.18L111.507 101.583L111.213 108.991L114.645 121.1C116.451 139.171 116.559 156.875 114.711 174.156C114.707 174.206 114.714 174.256 114.732 174.302C114.919 174.888 114.985 175.507 114.926 176.12C114.866 176.733 114.682 177.327 114.385 177.862C114.308 177.999 114.255 178.149 114.229 178.304C113.848 181.334 113.799 177.501 113.294 180.504L113.392 180.555C113.746 180.68 113.897 181.183 113.731 181.678C113.565 182.173 113.143 182.473 112.79 182.348L103.563 182.449C103.209 182.324 103.058 181.821 103.224 181.326C103.39 180.831 103.812 180.531 104.165 180.656L104.739 180.955L103.779 177.728L103.442 177.405C103.281 177.25 103.156 177.06 103.076 176.849C102.997 176.638 102.964 176.411 102.982 176.185C103 175.959 103.068 175.74 103.179 175.545C103.291 175.349 103.445 175.183 103.628 175.057L103.907 165.689L104.043 161.723L103.763 157.224L102.469 136.987L97.571 161.873L92.5676 188.829C92.6844 188.937 92.7721 189.074 92.8223 189.227C92.8726 189.38 92.8837 189.543 92.8546 189.702C92.8086 189.924 92.6889 190.122 92.5161 190.263C92.3433 190.404 92.1281 190.479 91.9075 190.474H85.1153C84.9729 190.474 84.8324 190.44 84.7049 190.375C84.5773 190.31 84.4661 190.216 84.3799 190.1C84.2937 189.983 84.2348 189.848 84.2078 189.704C84.1808 189.561 84.1865 189.413 84.2244 189.272C84.2817 189.069 84.4024 188.891 84.5678 188.766C84.7332 188.641 84.9342 188.575 85.1397 188.578Z" fill="#2F2E41"/>
<path d="M91.1798 57.8058C91.1793 59.2423 91.5222 60.657 92.1784 61.9257C92.8345 63.1943 93.7839 64.2782 94.9432 65.0821C96.1025 65.886 97.4362 66.3854 98.8273 66.5364C100.218 66.6874 101.624 66.4854 102.922 65.9481C104.219 65.4109 105.368 64.5548 106.268 63.455C107.168 62.3553 107.791 61.0455 108.083 59.6406C108.375 58.2357 108.327 56.7787 107.942 55.3974C107.558 54.0162 106.849 52.753 105.878 51.7187L105.837 51.6766C105.769 51.6029 105.701 51.5292 105.629 51.459C105.628 51.459 105.628 51.4589 105.628 51.4587C105.627 51.4585 105.627 51.4583 105.626 51.4579C105.626 51.4576 105.626 51.4572 105.626 51.4568C105.626 51.4564 105.625 51.4559 105.626 51.4555C105.528 51.382 105.437 51.2985 105.355 51.2062C104.202 49.5507 102.894 48.1626 99.7255 49.0298C95.1642 50.2783 91.1798 52.9579 91.1798 57.8058Z" fill="#2F2E41"/>
<path d="M138.123 54.0489C138.143 54.5184 138.061 54.9866 137.886 55.4205C137.71 55.8543 137.443 56.2433 137.105 56.56C136.767 56.8767 136.365 57.1134 135.929 57.2535C135.492 57.3935 135.03 57.4335 134.577 57.3707L112.538 75.9453L109.172 69.869L131.894 53.5214C132.047 52.7461 132.472 52.0554 133.088 51.5803C133.704 51.1052 134.469 50.8787 135.237 50.9437C136.004 51.0087 136.722 51.3607 137.254 51.933C137.786 52.5053 138.096 53.2582 138.123 54.0489V54.0489Z" fill="#FFB6B6"/>
<path d="M103.232 81.4231C103.232 81.4231 103.95 82.953 106.742 80.7799C108.978 79.0402 119.65 71.5343 122.021 68.3615C122.518 68.5923 123.076 68.6466 123.607 68.5159C124.138 68.3851 124.611 68.0767 124.952 67.6393L119.122 61.8742C117.292 62.0011 117.273 63.2584 117.43 63.9804L112.744 65.8926L100.539 73.0936L102.694 80.3267L103.232 81.4231Z" fill="#E6E6E6"/>
<path d="M101.831 67.1953C105.789 67.1953 108.997 63.9005 108.997 59.8363C108.997 55.772 105.789 52.4772 101.831 52.4772C97.8733 52.4772 94.665 55.772 94.665 59.8363C94.665 63.9005 97.8733 67.1953 101.831 67.1953Z" fill="#FFB7B7"/>
<path d="M111.606 96.3386L111.68 92.2333C111.971 91.8232 114.409 88.2432 113.862 84.6668C113.607 82.983 112.717 81.569 111.224 80.468L110.261 78.1653L108.835 74.7617L104.662 72.2107L104.084 71.0018L103.608 69.998L97.8513 69.4079L96.4324 71.3688L96.4044 71.3724C95.1005 71.6767 93.8757 72.2657 92.8132 73.0994C91.6468 74.0083 90.7012 75.1823 90.0508 76.5294C89.4004 77.8766 89.0628 79.3602 89.0644 80.8638L89.0995 85.6347L89.1065 86.3183L89.11 86.9803L92.7011 96.907L92.8378 97.292L94.2462 101.181L94.0044 101.592C93.7442 102.038 93.648 102.565 93.7335 103.078C93.819 103.591 94.0804 104.055 94.4704 104.387L94.6386 106.819L94.9434 106.733L96.6776 106.237L109.795 102.477C110.289 102.335 110.725 102.033 111.039 101.617C111.05 101.602 111.06 101.586 111.07 101.57C111.122 101.504 111.168 101.433 111.207 101.358C111.505 100.584 111.536 100.375 111.54 100.16C111.975 99.6501 112.227 99.0023 112.252 98.325C112.278 97.6476 112.076 96.9818 111.68 96.4393L111.606 96.3386Z" fill="#6C63FF"/>
<path d="M94.3315 61.7655C94.3964 61.755 94.4614 61.7409 94.5263 61.7304C95.6441 61.5268 96.7619 61.3267 97.8762 61.1196L97.9788 58.5254L99.329 60.8493C102.409 61.8989 105.29 61.3056 108.001 59.9962C108.895 59.5603 109.763 59.0692 110.599 58.5254C110.874 54.1381 109.147 51.3294 105.933 51.624C105.816 51.6347 105.731 51.5117 105.629 51.459C105.628 51.459 105.628 51.4589 105.628 51.4587C105.627 51.4585 105.627 51.4583 105.626 51.4579C105.626 51.4576 105.626 51.4572 105.626 51.4568C105.626 51.4564 105.625 51.4559 105.626 51.4554C105.451 51.3712 105.273 51.2905 105.096 51.2168C103.704 50.6583 102.187 50.5168 100.72 50.8089C99.2532 51.1009 97.8973 51.8145 96.8098 52.8666C94.6221 55.0115 93.6376 58.5535 94.3315 61.7655Z" fill="#2F2E41"/>
<path d="M99.0005 49.2414C98.9288 49.495 98.7871 49.7217 98.5924 49.8941C98.3978 50.0666 98.1586 50.1773 97.9039 50.2129C96.9404 51.4362 95.8368 52.7314 94.3267 52.9761C93.8951 53.0701 93.4449 52.9903 93.069 52.753C93.0231 52.7234 92.9808 52.6884 92.9428 52.6487C92.5855 52.2997 92.5575 51.5981 92.9814 51.3354C91.0825 52.109 89.9718 54.2138 89.6916 56.2898C89.4113 58.3658 89.8002 60.4634 90.0559 62.543C90.3117 64.6226 90.4238 66.8066 89.6285 68.7387C88.6895 71.0162 86.5314 72.6533 84.177 73.175C83.9668 73.2217 83.7566 73.2613 83.5428 73.2865C83.4009 72.2989 83.044 71.3569 82.4988 70.5305C82.643 71.487 82.5576 72.4651 82.2501 73.3801C80.4796 73.3549 78.741 72.8934 77.1804 72.0344C75.0468 70.8795 73.2705 69.1165 71.8165 67.1412C74.3215 68.9654 77.783 69.649 80.5088 68.2062C82.9472 66.9109 84.3872 64.1909 85.0178 61.4492C85.6485 58.704 82.9978 55.3406 83.2851 52.5378C83.5759 49.735 86.8677 47.3561 88.6685 45.2297C89.8177 43.8733 91.5134 42.8694 93.2617 43.0385C93.8521 43.0963 94.4234 43.2841 94.9368 43.5891C95.4502 43.8941 95.8936 44.3091 96.2367 44.8059C96.5798 45.3027 96.8146 45.8696 96.9252 46.468C97.0357 47.0664 97.0194 47.6822 96.8773 48.2736C97.3748 47.5504 98.6606 47.7087 98.9794 48.5326C99.065 48.7595 99.0724 49.0096 99.0005 49.2414Z" fill="#2F2E41"/>
<path d="M94.5263 61.7304C94.5263 61.7304 96.6491 53.5933 105.749 51.7152C105.759 51.7117 105.793 51.6977 105.837 51.6766C105.865 51.6591 105.899 51.6415 105.933 51.624C105.831 51.5643 105.731 51.5117 105.629 51.459C105.628 51.459 105.628 51.4589 105.628 51.4587C105.627 51.4585 105.627 51.4583 105.626 51.458C105.626 51.4576 105.626 51.4572 105.626 51.4568C105.626 51.4564 105.625 51.4559 105.625 51.4555C105.537 51.3712 105.448 51.287 105.355 51.2062L105.096 51.2168C105.096 51.2168 95.9654 49.7319 94.5263 61.7304Z" fill="#FD6584"/>
<path d="M117.363 100.507C117.282 100.295 117.145 100.111 116.968 99.9731C116.792 99.8357 116.582 99.7508 116.361 99.7277C115.919 99.6884 115.474 99.7545 115.061 99.921C113.44 100.475 111.985 101.447 110.834 102.743L110.854 103.567C110.313 104.275 110.024 105.152 110.036 106.051C110.047 106.951 110.358 107.819 110.916 108.513C111.232 108.912 111.662 109.198 112.146 109.33C112.387 109.392 112.641 109.385 112.879 109.312C113.118 109.238 113.332 109.099 113.5 108.91C113.985 108.305 113.751 107.392 113.395 106.699C112.773 105.492 111.863 104.468 110.751 103.722C112.608 103.673 114.433 103.208 116.097 102.357C116.465 102.192 116.798 101.952 117.075 101.653C117.211 101.501 117.31 101.317 117.36 101.117C117.41 100.917 117.411 100.708 117.363 100.507Z" fill="#2F2E41"/>
<path d="M150.669 148.97L147.202 149.111C146.335 150.758 145.872 152.596 145.854 154.468C147.917 151.902 151.869 152.244 154.635 150.512C155.494 149.964 156.221 149.226 156.764 148.351C157.307 147.475 157.652 146.486 157.771 145.455L159.067 143.306C157.463 143.002 155.813 143.059 154.232 143.473C152.652 143.887 151.177 144.648 149.91 145.703C149.205 146.302 148.576 146.99 148.039 147.751C149.362 148.274 150.669 148.97 150.669 148.97Z" fill="#F2F2F2"/>
<path d="M133.369 187.676L129.901 187.817C129.034 189.464 128.572 191.302 128.554 193.174C130.617 190.608 134.568 190.95 137.334 189.218C138.193 188.67 138.921 187.932 139.464 187.057C140.007 186.181 140.351 185.192 140.471 184.161L141.766 182.012C140.162 181.708 138.513 181.765 136.932 182.179C135.351 182.593 133.876 183.354 132.609 184.409C131.904 185.008 131.276 185.696 130.738 186.457C132.061 186.98 133.369 187.676 133.369 187.676Z" fill="#F2F2F2"/>
<path d="M51.6432 132.874L48.704 130.979C47.083 131.835 45.69 133.084 44.6459 134.618C47.7594 133.697 50.8326 136.271 54.0682 136.446C55.0777 136.492 56.0845 136.305 57.014 135.897C57.9434 135.49 58.7716 134.873 59.4373 134.092L61.6884 133.07C60.5315 131.888 59.139 130.979 57.6069 130.403C56.0747 129.828 54.4393 129.601 52.8133 129.737C51.9019 129.823 51.0046 130.026 50.1426 130.342C50.947 131.541 51.6432 132.874 51.6432 132.874Z" fill="#F2F2F2"/>
<path d="M138.249 50.2255C138.18 49.7486 138.684 49.4087 138.872 48.9671C138.993 48.573 138.993 48.1502 138.872 47.7562C138.763 47.2208 138.638 46.653 138.261 46.2672C137.875 45.9344 137.4 45.7298 136.898 45.6807C135.679 45.4621 134.434 45.4395 133.209 45.6137L134.138 45.6718C133.553 45.6334 132.965 45.7034 132.404 45.8785C132.124 45.9693 131.871 46.1308 131.667 46.3483C131.464 46.5657 131.317 46.8321 131.24 47.1231C131.125 47.7125 131.518 48.4029 132.101 48.4534C131.81 48.3924 131.507 48.4524 131.258 48.6201C131.01 48.7878 130.836 49.0497 130.775 49.3485C130.714 49.6473 130.771 49.9587 130.933 50.2147C131.095 50.4707 131.349 50.6504 131.64 50.7147C131.505 51.0872 131.106 51.2656 130.764 51.4514C130.423 51.6372 130.063 51.9559 130.121 52.3486C130.197 52.8679 130.873 52.9746 131.383 52.9517L136.945 52.7025C137.424 52.72 137.9 52.6185 138.333 52.4066C138.745 52.1597 139.032 51.6185 138.842 51.1691C138.695 50.8219 138.303 50.6 138.249 50.2255Z" fill="#3F3D56"/>
<path d="M73.7457 101.095C72.9813 104.544 72.618 108.454 74.6567 111.54C75.5233 112.864 76.795 113.853 78.2706 114.351C79.7643 114.806 81.3392 114.905 82.8758 114.642C86.353 114.147 89.4434 112.287 92.8632 111.565C94.3723 111.246 95.9739 111.141 97.4267 111.754C98.5152 112.214 99.6617 113.138 99.667 114.456C99.6723 115.809 98.5277 116.707 97.3894 117.123C95.8704 117.678 94.2919 117.464 92.7164 117.394C91.0196 117.318 89.2894 117.476 87.8797 118.543C86.6674 119.515 85.7376 120.809 85.1915 122.286C84.483 124.052 84.1954 125.95 83.7424 127.793C83.3374 129.449 82.7646 131.058 82.0333 132.592C80.5983 135.598 78.5866 138.276 76.119 140.464C74.9021 141.54 73.4233 142.636 71.7613 142.734C70.4793 142.81 68.921 142.257 68.4269 140.924C68.2433 140.348 68.2613 139.724 68.4777 139.161C68.6941 138.597 69.0953 138.129 69.6121 137.837C70.7108 137.268 71.9073 138.08 72.2621 139.194C72.3551 139.451 72.3877 139.727 72.357 140C72.3264 140.272 72.2334 140.533 72.0858 140.761C71.7526 141.272 72.5551 141.749 72.886 141.242C73.6543 140.065 73.2528 138.483 72.3118 137.541C71.8528 137.06 71.2392 136.767 70.5855 136.717C69.9318 136.667 69.2827 136.863 68.7594 137.269C68.2156 137.694 67.8046 138.273 67.5767 138.934C67.3488 139.596 67.3139 140.312 67.4763 140.993C67.8715 142.458 69.273 143.39 70.6725 143.62C72.4007 143.905 74.0639 143.208 75.459 142.2C76.8587 141.163 78.1313 139.955 79.2494 138.605C81.5224 135.92 83.2311 132.783 84.2685 129.389C85.2886 126.032 85.3628 121.597 88.394 119.33C89.9538 118.163 91.865 118.292 93.6938 118.399C95.3082 118.494 96.883 118.477 98.364 117.726C99.5869 117.107 100.574 115.963 100.594 114.505C100.615 113.034 99.5974 111.851 98.399 111.181C95.2331 109.41 91.4311 110.838 88.3209 112.021C85.1931 113.211 81.6219 114.607 78.2979 113.355C76.7638 112.743 75.5286 111.531 74.8632 109.985C74.0583 108.232 73.9438 106.243 74.1297 104.341C74.2394 103.333 74.4096 102.334 74.6394 101.349C74.7715 100.752 73.8782 100.498 73.7457 101.095L73.7457 101.095Z" fill="#3F3D56"/>
<path d="M89.0953 120.286C88.8107 119.918 88.6081 119.491 88.5018 119.033C88.3955 118.576 88.3881 118.101 88.48 117.641C88.572 117.18 88.7612 116.746 89.0342 116.369C89.3072 115.992 89.6574 115.681 90.0602 115.458L85.3492 101.135L89.196 85.9566L95.3989 88.8365L91.5712 100.285L94.4349 116.949C94.7551 117.669 94.8071 118.484 94.581 119.241C94.355 119.997 93.8666 120.642 93.2084 121.053C92.5502 121.465 91.768 121.614 91.0099 121.472C90.2519 121.331 89.5706 120.909 89.0953 120.286L89.0953 120.286Z" fill="#FFB6B6"/>
<path d="M94.7732 73.4506C94.7732 73.4506 93.3163 72.6472 92.3031 76.0915C91.4919 78.8489 85.9716 93.8202 85.8722 97.8181C85.3377 97.932 84.8553 98.2252 84.501 98.6516C84.1467 99.078 83.9406 99.6133 83.9152 100.173L91.9328 101.313C93.3397 100.105 92.6345 99.0766 92.0942 98.5875L94.8249 93.8373L100.533 81.0135L95.8364 74.0122L94.7732 73.4506Z" fill="#E6E6E6"/>
<path d="M79.4265 91.4215C78.51 94.5639 77.1284 97.543 75.33 100.254C74.8851 100.92 74.4176 101.57 73.9275 102.202C73.5464 101.491 73.085 100.829 72.5527 100.229C70.6836 98.1189 68.1781 96.7388 65.7468 95.3555C63.3155 93.9723 60.8471 92.4875 59.1294 90.2444C58.3586 89.2347 57.8067 88.0676 57.5105 86.8212C57.1213 85.1302 57.2696 83.3662 58.2304 81.9544C59.6267 79.9017 62.4103 79.1783 64.7767 79.7716C67.1463 80.3649 69.1297 82.0559 70.6681 83.9976C70.1646 81.6117 72.6144 79.3084 74.984 79.5178C77.3535 79.7304 79.2535 81.856 79.8838 84.2101C80.5171 86.561 80.1062 89.0801 79.4265 91.4215Z" fill="#6C63FF"/>
<path d="M125.231 4.1351C123.976 4.34563 122.775 4.81594 121.702 5.5175C120.629 6.21905 119.705 7.13721 118.988 8.21628C118.261 9.33038 117.777 10.5924 117.568 11.9163C117.36 13.2401 117.432 14.5946 117.779 15.8873C118.17 17.3863 118.911 18.7644 119.939 19.9014C120.347 20.3507 121.001 19.6765 120.595 19.2284C119.785 18.3161 119.173 17.2377 118.799 16.0646C118.425 14.8914 118.298 13.6502 118.426 12.4228C118.563 11.2432 118.944 10.1071 119.542 9.09021C120.14 8.07327 120.942 7.19873 121.895 6.52472C122.962 5.75628 124.189 5.25248 125.478 5.05289C126.066 4.96201 125.816 4.04474 125.231 4.1351V4.1351Z" fill="#3F3D56"/>
<g opacity="0.2">
<path d="M157.022 19.1492C156.6 19.674 156.136 20.1621 155.635 20.6086C147.859 27.5312 141.541 35.1201 136.855 43.1627L135.165 46.0625L135.051 46.2624C134.652 45.9544 134.305 45.5827 134.022 45.1615C132.941 43.5466 132.934 41.4241 133.2 39.4825C134.004 33.6607 136.888 28.3542 141.291 24.5958C145.694 20.8373 151.302 18.8958 157.022 19.1492Z" fill="black"/>
</g>
<g opacity="0.2">
<path d="M75.33 100.254C74.8851 100.92 74.4176 101.57 73.9274 102.202C73.5464 101.491 73.085 100.829 72.5527 100.229C70.6836 98.1188 68.1781 96.7387 65.7468 95.3555C63.3155 93.9722 60.847 92.4874 59.1294 90.2444C58.3586 89.2347 57.8066 88.0676 57.5105 86.8211C62.9762 87.5993 67.9985 90.3354 71.6907 94.5465C73.169 96.2561 74.3951 98.179 75.33 100.254Z" fill="black"/>
</g>
<path d="M134.569 46.1926C135.251 46.1926 135.804 45.6244 135.804 44.9235C135.804 44.2227 135.251 43.6545 134.569 43.6545C133.886 43.6545 133.333 44.2227 133.333 44.9235C133.333 45.6244 133.886 46.1926 134.569 46.1926Z" fill="#3F3D56"/>
</g>
<defs>
<clipPath id="clip0_20_91">
<rect width="197" height="207" fill="white"/>
</clipPath>
</defs>
</svg>
